<svg xmlns="http://www.w3.org/2000/svg" width="72.803" height="55.024" viewBox="0 0 72.803 55.024">
  <g id="Group_4086" data-name="Group 4086" transform="translate(-1566 -512.933)" opacity="0.5">
    <path id="Icon_awesome-car" data-name="Icon awesome-car" d="M54.035,16.6h-6.47l-1.8-4.5A12.043,12.043,0,0,0,34.529,4.5H20.8A12.046,12.046,0,0,0,9.565,12.108l-1.8,4.5H1.3A1.3,1.3,0,0,0,.04,18.216l.648,2.594a1.3,1.3,0,0,0,1.258.982H4.115a6.868,6.868,0,0,0-2.386,5.188v5.188A6.86,6.86,0,0,0,3.458,36.7v5.844A3.459,3.459,0,0,0,6.917,46h3.458a3.459,3.459,0,0,0,3.458-3.458V39.083H41.5v3.458A3.459,3.459,0,0,0,44.958,46h3.458a3.459,3.459,0,0,0,3.458-3.458V36.7A6.856,6.856,0,0,0,53.6,32.167V26.979a6.871,6.871,0,0,0-2.385-5.188h2.169a1.3,1.3,0,0,0,1.258-.982l.648-2.594A1.3,1.3,0,0,0,54.035,16.6ZM15.987,14.677A5.188,5.188,0,0,1,20.8,11.417H34.529a5.188,5.188,0,0,1,4.817,3.261L41.5,20.063H13.833l2.154-5.385ZM10.375,32.145A3.262,3.262,0,0,1,6.917,28.7a3.262,3.262,0,0,1,3.458-3.448c2.075,0,5.188,3.1,5.188,5.171S12.45,32.145,10.375,32.145Zm34.583,0c-2.075,0-5.188.345-5.188-1.724s3.113-5.171,5.188-5.171A3.262,3.262,0,0,1,48.417,28.7a3.262,3.262,0,0,1-3.458,3.448Z" transform="translate(1566 521.956)"/>
    <path id="Icon_material-show-chart" data-name="Icon material-show-chart" d="M5.62,27.789,16.1,18.749l6.988,6.017,14.849-14.38L35.476,8.265,23.09,20.253,16.1,14.236,3,25.533Z" transform="translate(1600.864 504.668)"/>
  </g>
</svg>
